<svg id="Слой_1" data-name="Слой 1" xmlns="http://www.w3.org/2000/svg" viewBox="0 0 500 500"><defs><style>.cls-1{font-size:24px;fill:#76ff5f;font-family:Roboto-Regular, Roboto;}</style></defs><text class="cls-1" transform="matrix(0.86, -0.51, 0.51, 0.86, 146.38, 78.87)">.</text><text class="cls-1" transform="translate(151.57 75.68) rotate(-27.26)">С</text><text class="cls-1" transform="translate(165.2 68.68) rotate(-23.05)">S</text><text class="cls-1" transform="translate(178.04 63.2) rotate(-19.03)">S</text><text class="cls-1" transform="translate(191.32 58.72) rotate(-16.18)"> </text><text class="cls-1" transform="translate(196.83 57.05) rotate(-13.61)">&lt;</text><text class="cls-1" transform="matrix(0.98, -0.18, 0.18, 0.98, 208.47, 54.26)">/</text><text class="cls-1" transform="translate(217.96 52.45) rotate(-7.35)">&gt;</text><text class="cls-1" transform="translate(230.22 50.94) rotate(-4.76)"> </text><text class="cls-1" transform="translate(235.93 50.33) rotate(-1.75)">D</text><text class="cls-1" transform="matrix(1, 0.04, -0.04, 1, 251.37, 49.89)">o</text><text class="cls-1" transform="matrix(1, 0.09, -0.09, 1, 264.81, 50.5)">t</text><text class="cls-1" transform="translate(272.41 51.13) rotate(8.23)">a</text><text class="cls-1" transform="translate(285.09 52.95) rotate(11.97)">2</text><text class="cls-1" transform="matrix(0.97, 0.25, -0.25, 0.97, 298.05, 55.79)"> </text><text class="cls-1" transform="translate(303.63 57.18) rotate(17.27)">&lt;</text><text class="cls-1" transform="translate(315.05 60.71) rotate(20.77)">&gt;</text><text class="cls-1" transform="translate(326.56 65.15) rotate(23.38)"> </text><text class="cls-1" transform="translate(331.88 67.28) rotate(26.63)">H</text><text class="cls-1" transform="translate(346.57 74.67) rotate(30.95)">T</text><text class="cls-1" transform="translate(358.63 81.72) rotate(35.89)">M</text><text class="cls-1" transform="matrix(0.76, 0.65, -0.65, 0.76, 375.25, 93.93)">L</text><text class="cls-1" transform="matrix(0.73, 0.69, -0.69, 0.73, 384.85, 102.26)"> </text><text class="cls-1" transform="matrix(0.7, 0.72, -0.72, 0.7, 389.1, 106.14)">5</text><text class="cls-1" transform="translate(398.28 115.75) rotate(48.67)"> </text><text class="cls-1" transform="matrix(0.63, 0.78, -0.78, 0.63, 402.13, 120.02)">&lt;</text><text class="cls-1" transform="translate(409.63 129.38) rotate(54.29)">/</text><text class="cls-1" transform="matrix(0.54, 0.84, -0.84, 0.54, 415.29, 137.19)">&gt;</text><text class="cls-1" transform="translate(421.89 147.65) rotate(60.02)"> </text><text class="cls-1" transform="translate(424.83 152.57) rotate(62.67)">L</text><text class="cls-1" transform="translate(430.65 163.8) rotate(66.42)">o</text><text class="cls-1" transform="translate(436.01 176.09) rotate(70.18)">L</text><text class="cls-1" transform="translate(440.26 188.09) rotate(72.85)"> </text><text class="cls-1" transform="matrix(0.25, 0.97, -0.97, 0.25, 442.02, 193.55)">&lt;</text><text class="cls-1" transform="translate(445.04 205.11) rotate(78.9)">&gt;</text><text class="cls-1" transform="matrix(0.15, 0.99, -0.99, 0.15, 447.36, 217.26)"> </text><text class="cls-1" transform="translate(448.29 222.93) rotate(84.19)">J</text><text class="cls-1" transform="matrix(0.03, 1, -1, 0.03, 449.63, 235.84)">S</text><text class="cls-1" transform="matrix(-0.03, 1, -1, -0.03, 450.11, 249.79)">5</text><text class="cls-1" transform="translate(449.6 263.06) rotate(94.53)"> </text><text class="cls-1" transform="matrix(-0.12, 0.99, -0.99, -0.12, 449.22, 268.79)">&lt;</text><text class="cls-1" transform="translate(447.73 280.67) rotate(100.17)">/</text><text class="cls-1" transform="translate(446.06 290.2) rotate(103.33)">&gt;</text><text class="cls-1" transform="translate(443.14 302.19) rotate(105.94)"> </text><text class="cls-1" transform="translate(441.73 307.73) rotate(109.2)">И</text><text class="cls-1" transform="translate(436.17 323.57) rotate(113.57)">н</text><text class="cls-1" transform="translate(430.85 336) rotate(118.11)">ж</text><text class="cls-1" transform="matrix(-0.54, 0.84, -0.84, -0.54, 422.37, 351.7)">е</text><text class="cls-1" transform="translate(415.73 362.2) rotate(126.13)">н</text><text class="cls-1" transform="matrix(-0.64, 0.77, -0.77, -0.64, 407.71, 373.17)">е</text><text class="cls-1" transform="translate(399.7 382.73) rotate(133.01)">г</text><text class="cls-1" transform="matrix(-0.72, 0.69, -0.69, -0.72, 393.02, 389.97)">р</text><text class="cls-1" transform="translate(383.6 399.13) rotate(140.78)">ы</text><text class="cls-1" transform="matrix(-0.81, 0.58, -0.58, -0.81, 369.24, 410.61)"> </text><text class="cls-1" transform="matrix(-0.84, 0.54, -0.54, -0.84, 364.7, 414.09)">П</text><text class="cls-1" transform="translate(350.51 423.08) rotate(151.77)">о</text><text class="cls-1" transform="translate(338.63 429.41) rotate(155.11)">г</text><text class="cls-1" transform="translate(329.76 433.59) rotate(158.43)">р</text><text class="cls-1" transform="matrix(-0.95, 0.31, -0.31, -0.95, 317.48, 438.44)">а</text><text class="cls-1" transform="matrix(-0.97, 0.23, -0.23, -0.97, 305.37, 442.44)">м</text><text class="cls-1" transform="translate(288.37 446.45) rotate(171)">и</text><text class="cls-1" transform="translate(274.95 448.56) rotate(174.7)">с</text><text class="cls-1" transform="translate(262.69 449.69) rotate(178.05)">т</text><text class="cls-1" transform="translate(251.46 450.21) rotate(-177.79)">ы</text><text class="cls-1" transform="matrix(-1, -0.1, 0.1, -1, 233.1, 449.32)"> </text><text class="cls-1" transform="translate(227.37 448.83) rotate(-171.83)">&lt;</text><text class="cls-1" transform="translate(215.53 447.14) rotate(-168.35)">&gt;</text><text class="cls-1" transform="translate(203.46 444.58) rotate(-165.74)"> </text><text class="cls-1" transform="translate(197.88 443.44) rotate(-161.89)">W</text><text class="cls-1" transform="translate(178.36 436.9) rotate(-157.18)">e</text><text class="cls-1" transform="matrix(-0.89, -0.45, 0.45, -0.89, 166.87, 432.08)">b</text><text class="cls-1" transform="translate(155.04 426.09) rotate(-150.76)"> </text><text class="cls-1" transform="translate(150 423.35) rotate(-148.22)">&lt;</text><text class="cls-1" transform="matrix(-0.82, -0.57, 0.57, -0.82, 139.82, 417.01)">/</text><text class="cls-1" transform="matrix(-0.79, -0.62, 0.62, -0.79, 131.88, 411.53)">&gt;</text><text class="cls-1" transform="matrix(-0.76, -0.65, 0.65, -0.76, 122.18, 403.86)"> </text><text class="cls-1" transform="translate(117.74 400.27) rotate(-136.19)">Н</text><text class="cls-1" transform="matrix(-0.67, -0.74, 0.74, -0.67, 105.66, 388.59)">е</text><text class="cls-1" transform="translate(97.32 379.22) rotate(-129.43)"> </text><text class="cls-1" transform="translate(93.6 374.84) rotate(-126.78)">ч</text><text class="cls-1" transform="matrix(-0.54, -0.84, 0.84, -0.54, 85.93, 364.62)">и</text><text class="cls-1" transform="translate(78.56 353.21) rotate(-119.45)">т</text><text class="cls-1" transform="translate(73.07 343.56) rotate(-116.04)">а</text><text class="cls-1" transform="translate(67.43 332.08) rotate(-112.25)">й</text><text class="cls-1" transform="translate(62.35 319.43) rotate(-109.45)"> </text><text class="cls-1" transform="translate(60.37 314.02) rotate(-106.89)">&lt;</text><text class="cls-1" transform="translate(56.88 302.59) rotate(-103.39)">&gt;</text><text class="cls-1" transform="translate(54.09 290.57) rotate(-100.78)"> </text><text class="cls-1" transform="translate(52.89 284.97) rotate(-97.73)">D</text><text class="cls-1" transform="matrix(-0.07, -1, 1, -0.07, 50.85, 269.67)">e</text><text class="cls-1" transform="translate(50.1 257.24) rotate(-90.93)">s</text><text class="cls-1" transform="translate(50.04 245.02) rotate(-87.78)">i</text><text class="cls-1" transform="translate(50.17 239.4) rotate(-85.1)">g</text><text class="cls-1" transform="matrix(0.15, -0.99, 0.99, 0.15, 51.29, 226.24)">n</text><text class="cls-1" transform="matrix(0.2, -0.98, 0.98, 0.2, 53.32, 213.37)"> </text><text class="cls-1" transform="matrix(0.24, -0.97, 0.97, 0.24, 54.39, 207.7)">&lt;</text><text class="cls-1" transform="translate(57.28 196.1) rotate(-72.98)">/</text><text class="cls-1" transform="translate(60.08 186.83) rotate(-69.8)">&gt;</text><text class="cls-1" transform="matrix(0.39, -0.92, 0.92, 0.39, 64.4, 175.28)"> </text><text class="cls-1" transform="translate(66.51 169.95) rotate(-64.25)">В</text><text class="cls-1" transform="translate(72.9 156.76) rotate(-60.36)">е</text><text class="cls-1" transform="matrix(0.55, -0.84, 0.84, 0.55, 79.05, 145.92)">р</text><text class="cls-1" transform="matrix(0.6, -0.8, 0.8, 0.6, 86.31, 134.89)">с</text><text class="cls-1" transform="translate(93.72 125.05) rotate(-49.68)">т</text><text class="cls-1" transform="translate(101 116.42) rotate(-46.26)">к</text><text class="cls-1" transform="matrix(0.74, -0.68, 0.68, 0.74, 109.78, 107.24)">а</text><text class="cls-1" transform="matrix(0.77, -0.64, 0.64, 0.77, 119.29, 98.59)"> </text><text class="cls-1" transform="matrix(0.79, -0.61, 0.61, 0.79, 123.65, 94.84)">&lt;</text><text class="cls-1" transform="matrix(0.83, -0.56, 0.56, 0.83, 133.14, 87.56)">&gt;</text><text class="cls-1" transform="translate(143.4 80.72) rotate(-31.4)"> </text></svg>