<svg id="Слой_1" data-name="Слой 1" xmlns="http://www.w3.org/2000/svg" viewBox="0 0 500 500"><defs><style>.cls-1{fill:none;stroke:#76ff5f;stroke-miterlimit:10;stroke-width:7px;}</style></defs><path class="cls-1" d="M223.41,432.74c45.47-18.07,106.84-29.82,148.73-27.59"/><polyline class="cls-1" points="252.5 428.49 250.47 436.78 254.81 421.82"/><path class="cls-1" d="M288.74,367c5.17,3.62,13,12.11,16.53,17.34V393c-36.7,7.58-61.79,16.87-95.66,2.26-19.44-7.74-35.43-23.91-58-21.69"/><path class="cls-1" d="M356.32,360C334,364,329,390.41,305.27,393"/><path class="cls-1" d="M284.85,473.84c25.18,4.34,40.39-7.36,55.21,9.48,0,0,19,16.52,59.19,12.65,4.65.35,7.42-5.77,6.77-9,2.4-16.17-46.74-38.39-47.89-39.76-24-13.92-32.67-13.53-42.92,3.61l-30.69-4.23.61,50.73c-53.06-8.12-115.62-9.06-157.36-28.9-13.88-6.91-36.12-23.77-34.42-46.19C99.62,401,129.27,387,154.26,372.25c59.44-33.31,30-5.69,75.9-4.18,78.51,8.31,61.06-16.13,118.82-11,14.43,2.42,11.71,17.69,29.84,15.21,32.23.69,69.13,40.93,39.88,67.28-41.38,31.15-59.54,9.8-131.8,2.62-29.45-4.37-90.08-14.42-122.17-26"/><path class="cls-1" d="M177.85,461.18c-9.5,6.82-25.26,24.6-7.68,31.62,14.32,9.18,37-3.08,41.57-24.39"/><line class="cls-1" x1="342.32" y1="469.76" x2="342.32" y2="484.98"/><line class="cls-1" x1="353.61" y1="473.38" x2="351.84" y2="490"/><path class="cls-1" d="M362.65,477.37v16.24"/><line class="cls-1" x1="192.61" y1="493.61" x2="186.8" y2="487.83"/><path class="cls-1" d="M200.7,487.83c.92-.92-8.09-6.14-8.09-6.14"/><path class="cls-1" d="M316.14,357.86l-2.29-18.23c13.74-18.9,7.51-53.87,9.17-75.65"/><path class="cls-1" d="M381.63,298.52c-22.25,6-21.91,31.1-42,43.37"/><path class="cls-1" d="M320.63,248.36c9,59.64,13.73,81.69,16.27,86.3a18.92,18.92,0,0,1,2.71,7.23c.74,5.44-1.59,8.54,0,10.4,20.63,5.18,33.06-27.49,37.5-39.31,12-24.65-19.58-79.72-23.49-94.89-11.83-26.36-22.3-47.8-44.74-43.37-11.61,4.55-46.38-.48-80.42-4.53-46.15,8.23-80.9,44.75-95.34,113.87-4.77,22.55,3.56,75.86,4,97.8"/><path class="cls-1" d="M199,357.35c6.51-45.9-8.65-59.93,3.73-114"/><line class="cls-1" x1="313.85" y1="246.56" x2="322.93" y2="278.19"/><path class="cls-1" d="M192.61,243.39l6,25.8c-29.94,24-25.57,60.12-18,89.85"/><path class="cls-1" d="M293.07,93.39c2.2,5.3,6.55,47.74-2.71,56.48-33.92,25-56.72-18.39-34.79-53.77"/><path class="cls-1" d="M296,119.14c0-4.39,10.61-10.26,14.71-5,3.9,3.75-6.13,18.82-15.18,20"/><path class="cls-1" d="M246.77,114.62c-3.67-19.27-20,8,.2,17.25"/><path class="cls-1" d="M303.47,112.13c9.81-6.06,20.6-2.15,35.46-12.08,39.13-23.69-19.09-16.59-26.09-20-.13-2,26.92,0,36.59-14.91C368.23,15.22,310,62.21,302,61.08c-1.07-1.4,4.15-5.28,7.12-14.23,7.34-18.67-3.19-34.38-21.69-18.3-11.94,11.84-6.67,36.22-7.79,36.26-.52,0-.26-5.09-2.71-10.84.37-3.39-24.13-26.66-29.15-25.42-7.18-1.16-16.45,1.44-18,6.44-1.12,3.73,2.86,6.18,8.81,16.26,5.59,9.48,9.62,20.1,7.8,21.35-37.61-29.09-48.7,23.43-4.07,17.62-43.89-11.85-29.88,26.33-3.5,20.54,2-8.34,10.27,1.88,9.33,5a97.93,97.93,0,0,1,8.06-21.44c7.88,11.22,22.1,8.12,36.83-.9,2.88,6.76,4.2,18.33,3.42,24.41C297.59,116.83,301.87,112.09,303.47,112.13Z"/><path class="cls-1" d="M372.14,303c7.21,16.81-1.93,57.92,27.59,74.93-13.73-9.06-30-.29-39.09-13.51,1.21-11.82-3.18-28-7.47-35.67C356.15,323.53,370.33,300.47,372.14,303Z"/><path class="cls-1" d="M256.64,151.27c3.23,27.92-32.8,11.52-18.24,22.54,4.06,4,4.52,8.78,5.42,11.3,11.28,26.94,22.95,10.71,39.43-1.36,6.1-4.25,13.84-5.58,20.68-8.21"/><path class="cls-1" d="M313.19,174.09c-18.15-.27-32.33-5.42-29.94-19.46"/></svg>