<svg id="Слой_1" data-name="Слой 1" xmlns="http://www.w3.org/2000/svg" viewBox="0 0 1280.64 640.32"><defs><style>.cls-1,.cls-2{fill:#76ff5f;}.cls-2{font-size:60.32px;font-family:Roboto-Regular, Roboto;}.cls-3{fill:none;stroke:#76ff5f;stroke-miterlimit:10;stroke-width:7px;}</style></defs><rect width="1280.64" height="640.32"/><polygon class="cls-1" points="75.27 189.85 117.59 189.85 124.29 173.52 130.38 189.85 200.27 189.85 200.27 153.93 168.59 127.35 200.27 64.85 138.85 64.85 130.11 80.08 121.47 64.85 75.27 64.85 75.27 189.85"/><text class="cls-2" transform="matrix(0.86, -0.51, 0.51, 0.86, 442.5, 199.91)">.</text><text class="cls-2" transform="translate(455.55 191.89) rotate(-27.26)">С</text><text class="cls-2" transform="translate(489.8 174.28) rotate(-23.05)">S</text><text class="cls-2" transform="translate(522.05 160.53) rotate(-19.03)">S</text><text class="cls-2" transform="matrix(0.96, -0.28, 0.28, 0.96, 555.48, 149.26)"> </text><text class="cls-2" transform="translate(569.33 145.05) rotate(-13.61)">&lt;</text><text class="cls-2" transform="translate(598.59 138.03) rotate(-10.49)">/</text><text class="cls-2" transform="matrix(0.99, -0.13, 0.13, 0.99, 622.47, 133.5)">&gt;</text><text class="cls-2" transform="translate(653.28 129.72) rotate(-4.75)"> </text><text class="cls-2" transform="matrix(1, -0.03, 0.03, 1, 667.59, 128.19)">D</text><text class="cls-2" transform="translate(706.41 127.08) rotate(2.32)">o</text><text class="cls-2" transform="translate(740.22 128.62) rotate(5.31)">t</text><text class="cls-2" transform="matrix(0.99, 0.14, -0.14, 0.99, 759.36, 130.22)">a</text><text class="cls-2" transform="matrix(0.98, 0.21, -0.21, 0.98, 791.18, 134.79)">2</text><text class="cls-2" transform="translate(823.77 141.92) rotate(14.72)"> </text><text class="cls-2" transform="translate(837.83 145.42) rotate(17.29)">&lt;</text><text class="cls-2" transform="matrix(0.93, 0.35, -0.35, 0.93, 866.5, 154.32)">&gt;</text><text class="cls-2" transform="matrix(0.92, 0.4, -0.4, 0.92, 895.45, 165.5)"> </text><text class="cls-2" transform="translate(908.8 170.82) rotate(26.65)">H</text><text class="cls-2" transform="translate(945.75 189.44) rotate(30.97)">T</text><text class="cls-2" transform="matrix(0.81, 0.59, -0.59, 0.81, 976.08, 207.18)">M</text><text class="cls-2" transform="translate(1017.81 237.87) rotate(40.64)">L</text><text class="cls-2" transform="translate(1041.96 258.86) rotate(43.28)"> </text><text class="cls-2" transform="translate(1052.63 268.57) rotate(45.98)">5</text><text class="cls-2" transform="translate(1075.68 292.74) rotate(48.69)"> </text><text class="cls-2" transform="translate(1085.37 303.49) rotate(51.22)">&lt;</text><text class="cls-2" transform="matrix(0.58, 0.81, -0.81, 0.58, 1104.18, 327)">/</text><text class="cls-2" transform="translate(1118.43 346.67) rotate(57.45)">&gt;</text><text class="cls-2" transform="matrix(0.5, 0.87, -0.87, 0.5, 1134.98, 372.92)"> </text><text class="cls-2" transform="translate(1142.39 385.35) rotate(62.7)">L</text><text class="cls-2" transform="translate(1157.01 413.56) rotate(66.45)">o</text><text class="cls-2" transform="translate(1170.48 444.49) rotate(70.21)">L</text><text class="cls-2" transform="translate(1181.13 474.65) rotate(72.88)"> </text><text class="cls-2" transform="matrix(0.25, 0.97, -0.97, 0.25, 1185.57, 488.43)">&lt;</text><text class="cls-2" transform="translate(1193.15 517.5) rotate(78.93)">&gt;</text><text class="cls-2" transform="matrix(0.15, 0.99, -0.99, 0.15, 1198.94, 547.98)"> </text><text class="cls-2" transform="matrix(0.1, 0.99, -0.99, 0.1, 1201.29, 562.24)">J</text><text class="cls-2" transform="translate(1204.63 594.66) rotate(88.05)">S</text><text class="cls-2" transform="matrix(-0.03, 1, -1, -0.03, 1205.82, 629.77)">5</text><text class="cls-2" transform="translate(1204.52 663.11) rotate(94.57)"> </text><text class="cls-2" transform="translate(1203.55 677.56) rotate(97.1)">&lt;</text><text class="cls-2" transform="matrix(-0.18, 0.98, -0.98, -0.18, 1199.77, 707.4)">/</text><text class="cls-2" transform="matrix(-0.23, 0.97, -0.97, -0.23, 1195.56, 731.35)">&gt;</text><text class="cls-2" transform="translate(1188.21 761.5) rotate(105.99)"> </text><text class="cls-2" transform="translate(1184.66 775.4) rotate(109.24)">И</text><text class="cls-2" transform="translate(1170.62 815.23) rotate(113.62)">н</text><text class="cls-2" transform="translate(1157.24 846.47) rotate(118.16)">ж</text><text class="cls-2" transform="translate(1135.89 885.9) rotate(122.46)">е</text><text class="cls-2" transform="translate(1119.16 912.33) rotate(126.18)">н</text><text class="cls-2" transform="matrix(-0.64, 0.77, -0.77, -0.64, 1099, 939.86)">е</text><text class="cls-2" transform="matrix(-0.68, 0.73, -0.73, -0.68, 1078.81, 963.9)">г</text><text class="cls-2" transform="matrix(-0.72, 0.69, -0.69, -0.72, 1062.03, 982.05)">р</text><text class="cls-2" transform="translate(1038.33 1005.05) rotate(140.83)">ы</text><text class="cls-2" transform="matrix(-0.81, 0.58, -0.58, -0.81, 1002.22, 1033.89)"> </text><text class="cls-2" transform="matrix(-0.84, 0.54, -0.54, -0.84, 990.8, 1042.61)">П</text><text class="cls-2" transform="matrix(-0.88, 0.47, -0.47, -0.88, 955.1, 1065.2)">о</text><text class="cls-2" transform="matrix(-0.91, 0.42, -0.42, -0.91, 925.25, 1081.07)">г</text><text class="cls-2" transform="translate(902.88 1091.57) rotate(158.49)">р</text><text class="cls-2" transform="translate(872.02 1103.74) rotate(162.24)">а</text><text class="cls-2" transform="translate(841.59 1113.76) rotate(166.6)">м</text><text class="cls-2" transform="translate(798.81 1123.78) rotate(171.06)">и</text><text class="cls-2" transform="translate(765.06 1129.06) rotate(174.77)">с</text><text class="cls-2" transform="translate(734.22 1131.86) rotate(178.11)">т</text><text class="cls-2" transform="translate(705.99 1133.14) rotate(-177.72)">ы</text><text class="cls-2" transform="translate(659.83 1130.85) rotate(-174.3)"> </text><text class="cls-2" transform="matrix(-0.99, -0.14, 0.14, -0.99, 645.43, 1129.6)">&lt;</text><text class="cls-2" transform="translate(615.69 1125.33) rotate(-168.28)">&gt;</text><text class="cls-2" transform="translate(585.32 1118.85) rotate(-165.67)"> </text><text class="cls-2" transform="translate(571.34 1115.97) rotate(-161.82)">W</text><text class="cls-2" transform="matrix(-0.92, -0.39, 0.39, -0.92, 522.28, 1099.46)">e</text><text class="cls-2" transform="translate(493.44 1087.34) rotate(-153.42)">b</text><text class="cls-2" transform="translate(463.72 1072.23) rotate(-150.69)"> </text><text class="cls-2" transform="matrix(-0.85, -0.53, 0.53, -0.85, 451.01, 1065.31)">&lt;</text><text class="cls-2" transform="translate(425.46 1049.36) rotate(-145.05)">/</text><text class="cls-2" transform="matrix(-0.79, -0.62, 0.62, -0.79, 405.49, 1035.52)">&gt;</text><text class="cls-2" transform="matrix(-0.76, -0.65, 0.65, -0.76, 381.17, 1016.24)"> </text><text class="cls-2" transform="translate(370.01 1007.2) rotate(-136.12)">Н</text><text class="cls-2" transform="translate(339.66 977.76) rotate(-131.95)">е</text><text class="cls-2" transform="translate(318.76 954.24) rotate(-129.35)"> </text><text class="cls-2" transform="matrix(-0.6, -0.8, 0.8, -0.6, 309.43, 943.2)">ч</text><text class="cls-2" transform="matrix(-0.54, -0.84, 0.84, -0.54, 290.19, 917.47)">и</text><text class="cls-2" transform="translate(271.67 888.76) rotate(-119.37)">т</text><text class="cls-2" transform="translate(257.91 864.49) rotate(-115.96)">а</text><text class="cls-2" transform="translate(243.79 835.61) rotate(-112.16)">й</text><text class="cls-2" transform="translate(231.06 803.76) rotate(-109.37)"> </text><text class="cls-2" transform="translate(226.09 790.18) rotate(-106.8)">&lt;</text><text class="cls-2" transform="matrix(-0.23, -0.97, 0.97, -0.23, 217.38, 761.44)">&gt;</text><text class="cls-2" transform="translate(210.41 731.19) rotate(-100.7)"> </text><text class="cls-2" transform="matrix(-0.13, -0.99, 0.99, -0.13, 207.4, 717.11)">D</text><text class="cls-2" transform="translate(202.34 678.61) rotate(-93.67)">e</text><text class="cls-2" transform="translate(200.53 647.26) rotate(-90.93)">s</text><text class="cls-2" transform="translate(200.39 616.68) rotate(-87.69)">i</text><text class="cls-2" transform="matrix(0.09, -1, 1, 0.09, 200.73, 602.52)">g</text><text class="cls-2" transform="translate(203.6 569.47) rotate(-81.26)">n</text><text class="cls-2" transform="matrix(0.2, -0.98, 0.98, 0.2, 208.78, 537.11)"> </text><text class="cls-2" transform="translate(211.47 522.87) rotate(-76)">&lt;</text><text class="cls-2" transform="matrix(0.29, -0.96, 0.96, 0.29, 218.81, 493.69)">/</text><text class="cls-2" transform="matrix(0.35, -0.94, 0.94, 0.35, 225.85, 470.45)">&gt;</text><text class="cls-2" transform="matrix(0.39, -0.92, 0.92, 0.39, 236.79, 441.39)"> </text><text class="cls-2" transform="matrix(0.44, -0.9, 0.9, 0.44, 242.12, 428)">В</text><text class="cls-2" transform="translate(258.25 394.86) rotate(-60.26)">е</text><text class="cls-2" transform="matrix(0.55, -0.83, 0.83, 0.55, 273.74, 367.66)">р</text><text class="cls-2" transform="matrix(0.6, -0.8, 0.8, 0.6, 292.03, 339.96)">с</text><text class="cls-2" transform="matrix(0.65, -0.76, 0.76, 0.65, 310.71, 315.26)">т</text><text class="cls-2" transform="matrix(0.69, -0.72, 0.72, 0.69, 329.05, 293.62)">к</text><text class="cls-2" transform="matrix(0.74, -0.68, 0.68, 0.74, 351.15, 270.57)">а</text><text class="cls-2" transform="translate(375.1 248.87) rotate(-39.88)"> </text><text class="cls-2" transform="matrix(0.8, -0.61, 0.61, 0.8, 386.11, 239.44)">&lt;</text><text class="cls-2" transform="matrix(0.83, -0.56, 0.56, 0.83, 409.95, 221.2)">&gt;</text><text class="cls-2" transform="matrix(0.85, -0.52, 0.52, 0.85, 435.83, 204.04)"> </text><path class="cls-3" d="M642.86,563.86c37.72-15,88.64-24.74,123.41-22.89"/><polyline class="cls-3" points="667 560.34 665.31 567.22 668.91 554.8"/><path class="cls-3" d="M697.06,509.34c4.3,3,10.8,10.05,13.72,14.38v7.13c-30.45,6.29-51.27,14-79.38,1.87-16.12-6.42-29.4-19.83-48.09-18"/><path class="cls-3" d="M753.14,503.48c-18.51,3.37-22.65,25.26-42.36,27.37"/><path class="cls-3" d="M693.83,598c20.9,3.6,33.52-6.11,45.82,7.86,0,0,15.74,13.71,49.11,10.5,3.87.29,6.16-4.79,5.62-7.5,2-13.42-38.79-31.85-39.74-33-19.95-11.55-27.11-11.22-35.61,3l-25.47-3.52.51,42.1c-44-6.74-95.94-7.52-130.57-24-11.52-5.73-30-19.72-28.56-38.33,5.19-17.62,29.8-29.17,50.54-41.44,49.31-27.64,24.85-4.72,63-3.46,65.14,6.89,50.67-13.39,98.59-9.12,12,2,9.72,14.68,24.76,12.62,26.74.57,57.36,34,33.09,55.83-34.33,25.85-49.4,8.13-109.37,2.18-24.43-3.63-74.74-12-101.36-21.55"/><path class="cls-3" d="M605.05,587.46c-7.89,5.66-21,20.41-6.37,26.24,11.88,7.62,30.72-2.56,34.49-20.24"/><line class="cls-3" x1="741.52" y1="594.58" x2="741.52" y2="607.21"/><line class="cls-3" x1="750.89" y1="597.58" x2="749.43" y2="611.38"/><path class="cls-3" d="M758.39,600.9v13.48"/><line class="cls-3" x1="617.3" y1="614.38" x2="612.48" y2="609.58"/><path class="cls-3" d="M624,609.58c.76-.77-6.71-5.1-6.71-5.1"/><path class="cls-3" d="M719.8,501.73l-1.9-15.12c11.4-15.69,6.23-44.71,7.6-62.78"/><path class="cls-3" d="M774.14,452.49c-18.46,5-18.18,25.81-34.87,36"/><path class="cls-3" d="M723.53,410.87c7.44,49.49,11.39,67.79,13.49,71.61a15.59,15.59,0,0,1,2.25,6c.62,4.51-1.31,7.08,0,8.63,17.13,4.3,27.44-22.81,31.12-32.62,10-20.45-16.24-66.15-19.49-78.74-9.81-21.87-18.5-39.66-37.12-36-9.64,3.78-38.49-.39-66.74-3.75-38.29,6.82-67.12,37.13-79.11,94.48-3.95,18.72,3,62.95,3.32,81.16"/><path class="cls-3" d="M622.57,501.31c5.4-38.09-7.17-49.73,3.1-94.56"/><line class="cls-3" x1="717.9" y1="409.37" x2="725.43" y2="435.62"/><path class="cls-3" d="M617.3,406.75l5,21.4c-24.84,19.91-21.22,49.89-15,74.56"/><path class="cls-3" d="M700.66,282.28c1.83,4.39,5.43,39.61-2.25,46.86-28.15,20.72-47.07-15.25-28.87-44.61"/><path class="cls-3" d="M703.07,303.64c0-3.63,8.81-8.51,12.21-4.12,3.24,3.11-5.09,15.62-12.6,16.6"/><path class="cls-3" d="M662.24,299.9c-3-16-16.61,6.66.16,14.31"/><path class="cls-3" d="M709.29,297.83c8.14-5,17.09-1.78,29.42-10,32.47-19.66-15.84-13.77-21.65-16.59-.1-1.64,22.34,0,30.37-12.38,15.59-41.42-32.74-2.43-39.37-3.37-.89-1.16,3.45-4.39,5.91-11.81,6.09-15.49-2.65-28.53-18-15.18-9.91,9.82-5.53,30-6.47,30.08-.42,0-.21-4.22-2.25-9,.31-2.81-20-22.12-24.18-21.09-6-1-13.65,1.19-14.9,5.34-.94,3.09,2.37,5.13,7.31,13.5,4.63,7.85,8,16.67,6.47,17.71-31.21-24.14-40.42,19.44-3.38,14.62-36.41-9.83-24.79,21.84-2.9,17,1.62-6.92,8.52,1.56,7.73,4.13A82.09,82.09,0,0,1,670.1,283c6.53,9.31,18.33,6.73,30.56-.75,2.39,5.61,3.48,15.21,2.83,20.25C704.41,301.73,708,297.8,709.29,297.83Z"/><path class="cls-3" d="M766.27,456.24c6,13.95-1.6,48.06,22.89,62.18-11.39-7.52-24.85-.24-32.44-11.21,1-9.81-2.63-23.28-6.2-29.6C753,473.24,764.76,454.11,766.27,456.24Z"/><path class="cls-3" d="M670.43,330.31c2.68,23.16-27.22,9.56-15.14,18.7,3.38,3.34,3.75,7.29,4.5,9.38,9.36,22.35,19,8.89,32.72-1.13,5.06-3.53,11.48-4.63,17.16-6.81"/><path class="cls-3" d="M717.36,349.24c-15.07-.22-26.84-4.5-24.85-16.14"/></svg>